<mxfile host="app.diagrams.net" modified="2020-10-28T12:05:09.485Z" agent="5.0 (Windows)" etag="leLq0ak4v_kPP6VTdJFT" version="13.8.5" type="github">
  <diagram id="EJyE3xgY3rA5Oy8GQSxj" name="Page-1">
    <mxGraphModel dx="622" dy="395" grid="1" gridSize="10" guides="1" tooltips="1" connect="1" arrows="1" fold="1" page="1" pageScale="1" pageWidth="827" pageHeight="1169" math="0" shadow="0">
      <root>
        <mxCell id="0" />
        <mxCell id="1" parent="0" />
        <mxCell id="Eurr6QDvCMiPPO9meUgi-1" value="" style="rounded=0;whiteSpace=wrap;html=1;rotation=90;" vertex="1" parent="1">
          <mxGeometry x="251.8" y="269.45" width="385.62" height="309.21" as="geometry" />
        </mxCell>
        <mxCell id="CMk42NDVx-9z72aOCZey-2" value="Gerar relatório" style="ellipse;whiteSpace=wrap;html=1;" parent="1" vertex="1">
          <mxGeometry x="350" y="320" width="75" height="50" as="geometry" />
        </mxCell>
        <mxCell id="CMk42NDVx-9z72aOCZey-3" value="Cadastrar assuntos" style="ellipse;whiteSpace=wrap;html=1;" parent="1" vertex="1">
          <mxGeometry x="350" y="380" width="75" height="50" as="geometry" />
        </mxCell>
        <mxCell id="CMk42NDVx-9z72aOCZey-4" value="Logar no Sistema" style="ellipse;whiteSpace=wrap;html=1;" parent="1" vertex="1">
          <mxGeometry x="350" y="260" width="75" height="50" as="geometry" />
        </mxCell>
        <mxCell id="CMk42NDVx-9z72aOCZey-5" value="Registrar saída de materiais" style="ellipse;whiteSpace=wrap;html=1;" parent="1" vertex="1">
          <mxGeometry x="347.5" y="500" width="75" height="50" as="geometry" />
        </mxCell>
        <mxCell id="CMk42NDVx-9z72aOCZey-6" value="Registrar entrada de materiais" style="ellipse;whiteSpace=wrap;html=1;" parent="1" vertex="1">
          <mxGeometry x="347.5" y="560" width="75" height="50" as="geometry" />
        </mxCell>
        <mxCell id="Eurr6QDvCMiPPO9meUgi-6" style="rounded=0;orthogonalLoop=1;jettySize=auto;html=1;endArrow=none;endFill=0;" edge="1" parent="1" target="CMk42NDVx-9z72aOCZey-3">
          <mxGeometry relative="1" as="geometry">
            <mxPoint x="260" y="425" as="targetPoint" />
            <mxPoint x="250" y="425" as="sourcePoint" />
          </mxGeometry>
        </mxCell>
        <mxCell id="Eurr6QDvCMiPPO9meUgi-2" value="Gestor geral" style="shape=umlActor;verticalLabelPosition=bottom;verticalAlign=top;html=1;outlineConnect=0;" vertex="1" parent="1">
          <mxGeometry x="187.5" y="395" width="30" height="60" as="geometry" />
        </mxCell>
        <mxCell id="Eurr6QDvCMiPPO9meUgi-3" value="&lt;div&gt;Aluno&lt;/div&gt;&lt;div&gt;&lt;br&gt;&lt;/div&gt;" style="shape=umlActor;verticalLabelPosition=bottom;verticalAlign=top;html=1;outlineConnect=0;" vertex="1" parent="1">
          <mxGeometry x="637.42" y="360" width="30" height="60" as="geometry" />
        </mxCell>
        <mxCell id="Eurr6QDvCMiPPO9meUgi-7" style="rounded=0;orthogonalLoop=1;jettySize=auto;html=1;endArrow=none;endFill=0;entryX=0;entryY=0.5;entryDx=0;entryDy=0;" edge="1" parent="1" target="CMk42NDVx-9z72aOCZey-4">
          <mxGeometry relative="1" as="geometry">
            <mxPoint x="350" y="405" as="targetPoint" />
            <mxPoint x="240" y="380" as="sourcePoint" />
          </mxGeometry>
        </mxCell>
        <mxCell id="Eurr6QDvCMiPPO9meUgi-8" style="rounded=0;orthogonalLoop=1;jettySize=auto;html=1;endArrow=none;endFill=0;entryX=0;entryY=0.5;entryDx=0;entryDy=0;" edge="1" parent="1" target="CMk42NDVx-9z72aOCZey-2">
          <mxGeometry relative="1" as="geometry">
            <mxPoint x="360" y="410" as="targetPoint" />
            <mxPoint x="250" y="400" as="sourcePoint" />
          </mxGeometry>
        </mxCell>
        <mxCell id="Eurr6QDvCMiPPO9meUgi-9" style="rounded=0;orthogonalLoop=1;jettySize=auto;html=1;endArrow=none;endFill=0;entryX=0;entryY=0.5;entryDx=0;entryDy=0;" edge="1" parent="1" target="CMk42NDVx-9z72aOCZey-5">
          <mxGeometry relative="1" as="geometry">
            <mxPoint x="370" y="445" as="targetPoint" />
            <mxPoint x="250" y="460" as="sourcePoint" />
          </mxGeometry>
        </mxCell>
        <mxCell id="Eurr6QDvCMiPPO9meUgi-10" style="rounded=0;orthogonalLoop=1;jettySize=auto;html=1;endArrow=none;endFill=0;entryX=0;entryY=0.5;entryDx=0;entryDy=0;" edge="1" parent="1" target="CMk42NDVx-9z72aOCZey-6">
          <mxGeometry relative="1" as="geometry">
            <mxPoint x="380" y="455" as="targetPoint" />
            <mxPoint x="240" y="480" as="sourcePoint" />
          </mxGeometry>
        </mxCell>
        <mxCell id="Eurr6QDvCMiPPO9meUgi-11" style="rounded=0;orthogonalLoop=1;jettySize=auto;html=1;endArrow=none;endFill=0;exitX=1;exitY=0.5;exitDx=0;exitDy=0;" edge="1" parent="1" source="CMk42NDVx-9z72aOCZey-4">
          <mxGeometry relative="1" as="geometry">
            <mxPoint x="630" y="370" as="targetPoint" />
            <mxPoint x="502.5" y="355" as="sourcePoint" />
          </mxGeometry>
        </mxCell>
        <mxCell id="Eurr6QDvCMiPPO9meUgi-13" value="Sistema do Laboratório de Robótica" style="rounded=0;whiteSpace=wrap;html=1;" vertex="1" parent="1">
          <mxGeometry x="290" y="231" width="220" height="20" as="geometry" />
        </mxCell>
        <mxCell id="Eurr6QDvCMiPPO9meUgi-20" style="edgeStyle=none;rounded=0;orthogonalLoop=1;jettySize=auto;html=1;exitX=1;exitY=0.5;exitDx=0;exitDy=0;entryX=0;entryY=0.5;entryDx=0;entryDy=0;endArrow=none;endFill=0;dashed=1;" edge="1" parent="1" source="Eurr6QDvCMiPPO9meUgi-15" target="Eurr6QDvCMiPPO9meUgi-19">
          <mxGeometry relative="1" as="geometry" />
        </mxCell>
        <mxCell id="Eurr6QDvCMiPPO9meUgi-15" value="&lt;div&gt;Cadastrar&lt;/div&gt;&lt;div&gt;Demandas&lt;br&gt;&lt;/div&gt;" style="ellipse;whiteSpace=wrap;html=1;" vertex="1" parent="1">
          <mxGeometry x="350" y="440" width="75" height="50" as="geometry" />
        </mxCell>
        <mxCell id="Eurr6QDvCMiPPO9meUgi-16" style="rounded=0;orthogonalLoop=1;jettySize=auto;html=1;endArrow=none;endFill=0;entryX=0;entryY=0.5;entryDx=0;entryDy=0;" edge="1" parent="1" target="Eurr6QDvCMiPPO9meUgi-15">
          <mxGeometry relative="1" as="geometry">
            <mxPoint x="350.8679945848828" y="410.34773801680535" as="targetPoint" />
            <mxPoint x="250" y="440" as="sourcePoint" />
          </mxGeometry>
        </mxCell>
        <mxCell id="Eurr6QDvCMiPPO9meUgi-19" value="Avaliar atendimento" style="ellipse;whiteSpace=wrap;html=1;fontSize=11;" vertex="1" parent="1">
          <mxGeometry x="500" y="480" width="70" height="50" as="geometry" />
        </mxCell>
        <mxCell id="Eurr6QDvCMiPPO9meUgi-21" value="&amp;lt;&amp;lt;include&amp;gt;&amp;gt;" style="text;html=1;strokeColor=none;fillColor=none;align=center;verticalAlign=middle;whiteSpace=wrap;rounded=0;rotation=30;" vertex="1" parent="1">
          <mxGeometry x="445" y="468" width="40" height="20" as="geometry" />
        </mxCell>
        <mxCell id="Eurr6QDvCMiPPO9meUgi-22" style="rounded=0;orthogonalLoop=1;jettySize=auto;html=1;endArrow=none;endFill=0;exitX=1;exitY=0;exitDx=0;exitDy=0;" edge="1" parent="1" source="Eurr6QDvCMiPPO9meUgi-15">
          <mxGeometry relative="1" as="geometry">
            <mxPoint x="630" y="410" as="targetPoint" />
            <mxPoint x="435" y="345" as="sourcePoint" />
          </mxGeometry>
        </mxCell>
        <mxCell id="Eurr6QDvCMiPPO9meUgi-27" style="edgeStyle=none;rounded=0;orthogonalLoop=1;jettySize=auto;html=1;exitX=0;exitY=0.5;exitDx=0;exitDy=0;entryX=1;entryY=0.5;entryDx=0;entryDy=0;dashed=1;endArrow=none;endFill=0;fontSize=11;" edge="1" parent="1" source="Eurr6QDvCMiPPO9meUgi-25" target="CMk42NDVx-9z72aOCZey-2">
          <mxGeometry relative="1" as="geometry" />
        </mxCell>
        <mxCell id="Eurr6QDvCMiPPO9meUgi-25" value="Anexar arquivos" style="ellipse;whiteSpace=wrap;html=1;fontSize=11;" vertex="1" parent="1">
          <mxGeometry x="500" y="360" width="70" height="50" as="geometry" />
        </mxCell>
        <mxCell id="Eurr6QDvCMiPPO9meUgi-28" value="&amp;lt;&amp;lt;extends&amp;gt;&amp;gt;" style="text;html=1;strokeColor=none;fillColor=none;align=center;verticalAlign=middle;whiteSpace=wrap;rounded=0;rotation=30;" vertex="1" parent="1">
          <mxGeometry x="448" y="349" width="40" height="20" as="geometry" />
        </mxCell>
      </root>
    </mxGraphModel>
  </diagram>
</mxfile>
